<?xml version="1.0" encoding="UTF-8" standalone="no"?>
<!DOCTYPE svg PUBLIC "-//W3C//DTD SVG 1.1//EN" "http://www.w3.org/Graphics/SVG/1.1/DTD/svg11.dtd">
<svg width="100%" height="100%" viewBox="0 0 1350 1080" version="1.1" xmlns="http://www.w3.org/2000/svg" xmlns:xlink="http://www.w3.org/1999/xlink" xml:space="preserve" xmlns:serif="http://www.serif.com/" style="fill-rule:evenodd;clip-rule:evenodd;stroke-linecap:round;stroke-linejoin:round;stroke-miterlimit:1.5;">
    <rect id="Artboard1" x="0" y="0" width="1350" height="1080" style="fill:none;"/>
    <g id="Artboard11" serif:id="Artboard1">
        <g transform="matrix(1,0,0,1.14286,0,-72.1429)">
            <path d="M416,513.75L416,531.25C416,536.079 411.519,540 406,540L268,540C262.481,540 258,536.079 258,531.25L258,513.75C258,508.921 262.481,505 268,505L406,505C411.519,505 416,508.921 416,513.75Z" style="fill:rgb(31,29,40);"/>
        </g>
        <path d="M684,328.75L684,348.25C684,353.631 679.631,358 674.25,358L486.75,358C481.369,358 477,353.631 477,348.25L477,328.75C477,323.369 481.369,319 486.75,319L674.25,319C679.631,319 684,323.369 684,328.75Z" style="fill:rgb(243,104,37);"/>
        <g transform="matrix(1,0,0,1,0,-3)">
            <path d="M684,504.75L684,518.25C684,521.975 680.975,525 677.25,525L483.75,525C480.025,525 477,521.975 477,518.25L477,504.75C477,501.025 480.025,498 483.75,498L677.25,498C680.975,498 684,501.025 684,504.75Z" style="fill:rgb(6,166,92);"/>
        </g>
        <path d="M479,160C479,160 475.208,160.421 470.467,160.948C459.731,162.141 451.331,170.749 450.402,181.511C444.058,254.976 421,522 421,522L409,522" style="fill:none;stroke:rgb(61,86,240);stroke-width:2px;"/>
        <path d="M477,338.5C477,338.5 472.61,338.957 467.586,339.481C458.961,340.379 451.988,346.907 450.524,355.454C443.176,398.357 422,522 422,522L409,522" style="fill:none;stroke:rgb(243,104,37);stroke-width:2px;"/>
        <path d="M477,508.5L456.313,508.5C452.161,508.5 448.067,509.467 444.353,511.323C436.438,515.281 423,522 423,522L409,522" style="fill:none;stroke:rgb(6,166,92);stroke-width:2px;"/>
        <path d="M477,678C477,678 474.922,677.811 472.044,677.549C461.919,676.629 453.587,669.198 451.518,659.244C443.227,619.342 423,522 423,522L409,522" style="fill:none;stroke:rgb(143,93,228);stroke-width:2px;"/>
        <path d="M477,887C477.552,887 478,887.448 478,888C478,888.552 477.552,889 477,889L467.617,889C457.713,889 449.473,881.387 448.691,871.514L421.076,523L409,523C408.448,523 408,522.552 408,522C408,521.448 408.448,521 409,521L422,521C422.522,521 422.956,521.401 422.997,521.921L450.684,871.356C451.384,880.189 458.756,887 467.617,887L477,887Z" style="fill:rgb(66,81,241);"/>
        <path d="M699,479C694.582,479 691,482.582 691,487L691,534.362C691,535.592 691.489,536.772 692.358,537.642C693.228,538.511 694.408,539 695.638,539L699,539C699.552,539 700,539.448 700,540C700,540.552 699.552,541 699,541L695.638,541C693.877,541 692.189,540.301 690.944,539.056C689.699,537.811 689,536.123 689,534.362L689,487C689,481.477 693.477,477 699,477L699,479Z" style="fill:rgb(130,174,157);"/>
        <g transform="matrix(1,0,0,2.08065,0,-720.811)">
            <path d="M699,477.519C699.552,477.519 700,477.735 700,478C700,478.265 699.552,478.481 699,478.481L697.075,478.481C695.464,478.481 693.919,478.788 692.779,479.336C691.64,479.883 691,480.626 691,481.401L691,536.922C691,537.611 691.569,538.272 692.583,538.759C693.596,539.246 694.971,539.519 696.404,539.519L699,539.519C699.552,539.519 700,539.735 700,540C700,540.265 699.552,540.481 699,540.481L696.404,540.481C694.44,540.481 692.557,540.106 691.169,539.438C689.78,538.771 689,537.866 689,536.922L689,481.401C689,480.371 689.851,479.384 691.365,478.656C692.88,477.928 694.934,477.519 697.075,477.519L699,477.519Z" style="fill:rgb(236,144,129);"/>
        </g>
        <g transform="matrix(1,0,0,0.919355,0,-305.722)">
            <path d="M699,476.912C699.552,476.912 700,477.4 700,478C700,478.6 699.552,479.088 699,479.088L695.178,479.088C692.87,479.088 691,481.122 691,483.632L691,533.631C691,536.548 693.174,538.912 695.856,538.912L699,538.912C699.552,538.912 700,539.4 700,540C700,540.6 699.552,541.088 699,541.088L695.856,541.088C692.069,541.088 689,537.749 689,533.631L689,483.632C689,479.921 691.766,476.912 695.178,476.912L699,476.912Z" style="fill:rgb(135,129,173);"/>
        </g>
        <g transform="matrix(1.22222,0,0,0.547667,46.6667,-152.055)">
            <path d="M699,476.174C699.452,476.174 699.818,476.992 699.818,478C699.818,479.008 699.452,479.826 699,479.826L694.357,479.826C692.403,479.826 690.818,483.362 690.818,487.724L690.818,531.761C690.818,535.303 692.105,538.174 693.692,538.174L699,538.174C699.452,538.174 699.818,538.992 699.818,540C699.818,541.008 699.452,541.826 699,541.826L693.692,541.826C691.201,541.826 689.182,537.319 689.182,531.76L689.182,487.724C689.182,481.345 691.499,476.174 694.357,476.174L699,476.174Z" style="fill:rgb(135,129,173);"/>
        </g>
        <g transform="matrix(1.22222,0,0,0.521894,46.6667,-76.0729)">
            <path d="M699,476.084C699.452,476.084 699.818,476.942 699.818,478C699.818,479.058 699.452,479.916 699,479.916L694.834,479.916C692.616,479.916 690.818,484.126 690.818,489.32L690.818,528.255C690.818,533.683 692.697,538.084 695.015,538.084L699,538.084C699.452,538.084 699.818,538.942 699.818,540C699.818,541.058 699.452,541.916 699,541.916L695.015,541.916C691.794,541.916 689.182,535.8 689.182,528.255L689.182,489.32C689.182,482.01 691.712,476.084 694.834,476.084L699,476.084Z" style="fill:rgb(135,129,173);"/>
        </g>
        <g transform="matrix(1.22222,0,0,0.521894,46.6667,7.76128)">
            <path d="M699,476.084C699.452,476.084 699.818,476.942 699.818,478C699.818,479.058 699.452,479.916 699,479.916L695.528,479.916C692.927,479.916 690.818,484.854 690.818,490.946L690.818,527.664C690.818,530.428 691.287,533.078 692.121,535.032C692.956,536.986 694.087,538.084 695.268,538.084L699,538.084C699.452,538.084 699.818,538.942 699.818,540C699.818,541.058 699.452,541.916 699,541.916L695.268,541.916C693.653,541.916 692.106,540.415 690.964,537.742C689.823,535.069 689.182,531.444 689.182,527.664L689.182,490.946C689.182,482.738 692.023,476.084 695.528,476.084L699,476.084Z" style="fill:rgb(236,144,129);"/>
        </g>
        <g transform="matrix(1.22222,0,0,0.521894,46.6667,72.8711)">
            <path d="M699,476.084C699.452,476.084 699.818,476.942 699.818,478C699.818,479.058 699.452,479.916 699,479.916L693.746,479.916C692.129,479.916 690.818,482.986 690.818,486.774L690.818,528.146C690.818,530.781 691.265,533.309 692.061,535.173C692.857,537.037 693.936,538.084 695.062,538.084L699,538.084C699.452,538.084 699.818,538.942 699.818,540C699.818,541.058 699.452,541.916 699,541.916L695.062,541.916C693.502,541.916 692.007,540.465 690.904,537.883C689.801,535.3 689.182,531.798 689.182,528.146L689.182,486.774C689.182,480.87 691.225,476.084 693.746,476.084L699,476.084Z" style="fill:rgb(236,144,129);"/>
        </g>
        <g transform="matrix(1.22222,0,0,0.521894,46.6667,136.704)">
            <path d="M699,476.084C699.452,476.084 699.818,476.942 699.818,478C699.818,479.058 699.452,479.916 699,479.916L694.969,479.916C693.868,479.916 692.812,480.94 692.034,482.763C691.256,484.586 690.818,487.059 690.818,489.637L690.818,529.834C690.818,534.39 692.395,538.084 694.341,538.084L699,538.084C699.452,538.084 699.818,538.942 699.818,540C699.818,541.058 699.452,541.916 699,541.916L694.341,541.916C691.492,541.916 689.182,536.507 689.182,529.834L689.182,489.637C689.182,486.043 689.792,482.595 690.877,480.054C691.962,477.512 693.434,476.084 694.969,476.084L699,476.084Z" style="fill:rgb(236,144,129);"/>
        </g>
        <g transform="matrix(1.22222,0,0,0.521894,46.6667,210.325)">
            <path d="M699,476.084C699.452,476.084 699.818,476.942 699.818,478C699.818,479.058 699.452,479.916 699,479.916L696.387,479.916C693.311,479.916 690.818,485.754 690.818,492.957L690.818,526.74C690.818,529.749 691.329,532.634 692.237,534.761C693.145,536.889 694.377,538.084 695.662,538.084L699,538.084C699.452,538.084 699.818,538.942 699.818,540C699.818,541.058 699.452,541.916 699,541.916L695.662,541.916C693.943,541.916 692.295,540.317 691.08,537.471C689.865,534.625 689.182,530.765 689.182,526.74L689.182,492.956C689.182,483.638 692.407,476.084 696.387,476.084L699,476.084Z" style="fill:rgb(130,174,157);"/>
        </g>
        <g transform="matrix(1.22222,0,0,0.554152,46.6667,258.528)">
            <path d="M699,476.195C699.452,476.195 699.818,477.004 699.818,478C699.818,478.996 699.452,479.805 699,479.805L695.916,479.805C693.1,479.805 690.818,484.838 690.818,491.048L690.818,528.192C690.818,533.717 692.849,538.195 695.354,538.195L699,538.195C699.452,538.195 699.818,539.004 699.818,540C699.818,540.996 699.452,541.805 699,541.805L695.354,541.805C691.945,541.805 689.182,535.71 689.182,528.192L689.182,491.048C689.182,482.845 692.197,476.195 695.916,476.195L699,476.195Z" style="fill:rgb(130,174,157);"/>
        </g>
        <g transform="matrix(1.22222,0,0,0.554152,46.6667,332.404)">
            <path d="M699,476.195C699.452,476.195 699.818,477.004 699.818,478C699.818,478.996 699.452,479.805 699,479.805L694.719,479.805C692.564,479.805 690.818,483.656 690.818,488.407L690.818,530.081C690.818,532.233 691.206,534.297 691.896,535.819C692.586,537.341 693.521,538.195 694.497,538.195L699,538.195C699.452,538.195 699.818,539.004 699.818,540C699.818,540.996 699.452,541.805 699,541.805L694.497,541.805C693.087,541.805 691.735,540.569 690.739,538.371C689.742,536.172 689.182,533.19 689.182,530.081L689.182,488.407C689.182,481.663 691.661,476.195 694.719,476.195L699,476.195Z" style="fill:rgb(154,147,165);"/>
        </g>
        <g transform="matrix(1.22222,0,0,0.554152,46.6667,395.727)">
            <path d="M699,476.195C699.452,476.195 699.818,477.004 699.818,478C699.818,478.996 699.452,479.805 699,479.805L694.553,479.805C692.49,479.805 690.818,483.493 690.818,488.042L690.818,529.515C690.818,531.817 691.233,534.025 691.971,535.653C692.709,537.281 693.71,538.195 694.754,538.195L699,538.195C699.452,538.195 699.818,539.004 699.818,540C699.818,540.996 699.452,541.805 699,541.805L694.754,541.805C693.276,541.805 691.859,540.51 690.814,538.205C689.769,535.9 689.182,532.774 689.182,529.515L689.182,488.042C689.182,481.499 691.587,476.195 694.553,476.195L699,476.195Z" style="fill:rgb(154,147,165);"/>
        </g>
        <g transform="matrix(1.22222,0,0,0.554152,46.6667,460.411)">
            <path d="M699,476.195C699.452,476.195 699.818,477.004 699.818,478C699.818,478.996 699.452,479.805 699,479.805L694.971,479.805C693.87,479.805 692.813,480.77 692.035,482.487C691.256,484.205 690.818,486.535 690.818,488.965L690.818,528.726C690.818,531.237 691.271,533.646 692.076,535.422C692.881,537.198 693.973,538.195 695.112,538.195L699,538.195C699.452,538.195 699.818,539.004 699.818,540C699.818,540.996 699.452,541.805 699,541.805L695.112,541.805C693.539,541.805 692.031,540.427 690.919,537.974C689.807,535.521 689.182,532.195 689.182,528.726L689.182,488.965C689.182,485.578 689.792,482.33 690.878,479.935C691.963,477.541 693.436,476.195 694.971,476.195L699,476.195Z" style="fill:rgb(154,147,165);"/>
        </g>
        <g transform="matrix(1.22222,0,0,0.554152,46.6667,543.139)">
            <path d="M699,476.195C699.452,476.195 699.818,477.004 699.818,478C699.818,478.996 699.452,479.805 699,479.805L695.316,479.805C692.832,479.805 690.818,484.246 690.818,489.725L690.818,528.46C690.818,533.837 692.794,538.195 695.232,538.195L699,538.195C699.452,538.195 699.818,539.004 699.818,540C699.818,540.996 699.452,541.805 699,541.805L695.232,541.805C691.891,541.805 689.182,535.83 689.182,528.46L689.182,489.725C689.182,482.253 691.928,476.195 695.316,476.195L699,476.195Z" style="fill:rgb(145,143,165);"/>
        </g>
        <g transform="matrix(1.22222,0,0,0.554152,46.6667,607.142)">
            <path d="M699,476.195C699.452,476.195 699.818,477.004 699.818,478C699.818,478.996 699.452,479.805 699,479.805L694.836,479.805C692.617,479.805 690.818,483.772 690.818,488.665L690.818,528.688C690.818,531.21 691.272,533.628 692.081,535.411C692.889,537.194 693.985,538.195 695.129,538.195L699,538.195C699.452,538.195 699.818,539.004 699.818,540C699.818,540.996 699.452,541.805 699,541.805L695.129,541.805C693.551,541.805 692.039,540.423 690.924,537.963C689.808,535.503 689.182,532.167 689.182,528.688L689.182,488.665C689.182,481.778 691.713,476.195 694.836,476.195L699,476.195Z" style="fill:rgb(145,143,165);"/>
        </g>
        <g transform="matrix(1.22222,0,0,0.699314,46.6667,603.652)">
            <path d="M699,476.57C699.452,476.57 699.818,477.211 699.818,478C699.818,478.789 699.452,479.43 699,479.43L694.931,479.43C692.66,479.43 690.818,482.648 690.818,486.618L690.818,532.936C690.818,536.047 692.261,538.57 694.042,538.57L699,538.57C699.452,538.57 699.818,539.211 699.818,540C699.818,540.789 699.452,541.43 699,541.43L694.042,541.43C691.358,541.43 689.182,537.627 689.182,532.936L689.182,486.618C689.182,481.069 691.756,476.57 694.931,476.57L699,476.57Z" style="fill:rgb(145,143,165);"/>
        </g>
        <path d="M684,162C683.448,162 683,161.552 683,161C683,160.448 683.448,160 684,160L690,160C690.552,160 691,160.448 691,161C691,161.552 690.552,162 690,162L684,162Z" style="fill:rgb(135,129,173);"/>
        <rect x="684" y="336" width="15" height="2" style="fill:rgb(236,144,129);"/>
        <g transform="matrix(0.4,0,0,1,410.4,172)">
            <rect x="684" y="336" width="15" height="2" style="fill:rgb(130,174,157);"/>
        </g>
        <g transform="matrix(1,0,0,1,0,340.449)">
            <rect x="684" y="336" width="15" height="2" style="fill:rgb(154,147,165);"/>
        </g>
        <g transform="matrix(1,0,0,1,0,550.328)">
            <rect x="684" y="336" width="15" height="2" style="fill:rgb(145,143,165);"/>
        </g>
        <path d="M882,134C881.448,134 881,133.552 881,133C881,132.448 881.448,132 882,132L890,132C890.552,132 891,132.448 891,133C891,133.552 890.552,134 890,134L882,134Z" style="fill:rgb(135,129,173);"/>
        <g transform="matrix(1,0,0,1,0,58)">
            <path d="M882,134C881.448,134 881,133.552 881,133C881,132.448 881.448,132 882,132L890,132C890.552,132 891,132.448 891,133C891,133.552 890.552,134 890,134L882,134Z" style="fill:rgb(135,129,173);"/>
        </g>
        <g transform="matrix(1,0,0,1,0,140)">
            <path d="M882,134C881.448,134 881,133.552 881,133C881,132.448 881.448,132 882,132L890,132C890.552,132 891,132.448 891,133C891,133.552 890.552,134 890,134L882,134Z" style="fill:rgb(236,144,129);"/>
        </g>
        <g transform="matrix(1,0,0,1,0,205.515)">
            <path d="M882,134C881.448,134 881,133.552 881,133C881,132.448 881.448,132 882,132L890,132C890.552,132 891,132.448 891,133C891,133.552 890.552,134 890,134L882,134Z" style="fill:rgb(236,144,129);"/>
        </g>
        <g transform="matrix(1,0,0,1,0,268.515)">
            <path d="M882,134C881.448,134 881,133.552 881,133C881,132.448 881.448,132 882,132L890,132C890.552,132 891,132.448 891,133C891,133.552 890.552,134 890,134L882,134Z" style="fill:rgb(236,144,129);"/>
        </g>
        <g transform="matrix(1,0,0,1,0,344.515)">
            <path d="M882,134C881.448,134 881,133.552 881,133C881,132.448 881.448,132 882,132L890,132C890.552,132 891,132.448 891,133C891,133.552 890.552,134 890,134L882,134Z" style="fill:rgb(130,174,157);"/>
        </g>
        <g transform="matrix(1,0,0,1,0,407)">
            <path d="M882,134C881.448,134 881,133.552 881,133C881,132.448 881.448,132 882,132L890,132C890.552,132 891,132.448 891,133C891,133.552 890.552,134 890,134L882,134Z" style="fill:rgb(130,174,157);"/>
        </g>
        <g transform="matrix(1,0,0,1,0,486)">
            <path d="M882,134C881.448,134 881,133.552 881,133C881,132.448 881.448,132 882,132L890,132C890.552,132 891,132.448 891,133C891,133.552 890.552,134 890,134L882,134Z" style="fill:rgb(154,147,165);"/>
        </g>
        <g transform="matrix(1,0,0,1,0,544)">
            <path d="M882,134C881.448,134 881,133.552 881,133C881,132.448 881.448,132 882,132L890,132C890.552,132 891,132.448 891,133C891,133.552 890.552,134 890,134L882,134Z" style="fill:rgb(154,147,165);"/>
        </g>
        <g transform="matrix(1,0,0,1,0,609)">
            <path d="M882,134C881.448,134 881,133.552 881,133C881,132.448 881.448,132 882,132L890,132C890.552,132 891,132.448 891,133C891,133.552 890.552,134 890,134L882,134Z" style="fill:rgb(154,147,165);"/>
        </g>
        <g transform="matrix(1,0,0,1,0,692)">
            <path d="M882,134C881.448,134 881,133.552 881,133C881,132.448 881.448,132 882,132L890,132C890.552,132 891,132.448 891,133C891,133.552 890.552,134 890,134L882,134Z" style="fill:rgb(145,143,165);"/>
        </g>
        <g transform="matrix(1,0,0,1,0,754)">
            <path d="M882,134C881.448,134 881,133.552 881,133C881,132.448 881.448,132 882,132L890,132C890.552,132 891,132.448 891,133C891,133.552 890.552,134 890,134L882,134Z" style="fill:rgb(145,143,165);"/>
        </g>
        <g transform="matrix(1,0,0,1,0,811)">
            <path d="M882,134C881.448,134 881,133.552 881,133C881,132.448 881.448,132 882,132L890,132C890.552,132 891,132.448 891,133C891,133.552 890.552,134 890,134L882,134Z" style="fill:rgb(145,143,165);"/>
        </g>
        <g transform="matrix(1,0,0,1.96774,0,-319.935)">
            <path d="M699,477.492C699.552,477.492 700,477.72 700,478C700,478.28 699.552,478.508 699,478.508L695.071,478.508C693.991,478.508 692.956,478.726 692.192,479.114C691.429,479.502 691,480.028 691,480.577L691,536.234C691,538.033 693.87,539.492 697.41,539.492L699,539.492C699.552,539.492 700,539.72 700,540C700,540.28 699.552,540.508 699,540.508L697.41,540.508C692.765,540.508 689,538.595 689,536.234L689,480.577C689,479.759 689.64,478.974 690.778,478.395C691.917,477.817 693.461,477.492 695.071,477.492L699,477.492Z" style="fill:rgb(154,147,165);"/>
        </g>
        <g transform="matrix(1,0,0,1.90323,0,-84.5748)">
            <path d="M699,477.475C699.552,477.475 700,477.71 700,478C700,478.29 699.552,478.525 699,478.525L695.275,478.525C694.141,478.525 693.054,478.762 692.252,479.183C691.45,479.604 691,480.176 691,480.771L691,537.47C691,538.002 691.402,538.511 692.117,538.887C692.833,539.263 693.803,539.475 694.815,539.475L699,539.475C699.552,539.475 700,539.71 700,540C700,540.29 699.552,540.525 699,540.525L694.815,540.525C693.273,540.525 691.794,540.204 690.703,539.63C689.613,539.057 689,538.28 689,537.47L689,480.771C689,479.897 689.661,479.058 690.838,478.44C692.014,477.822 693.61,477.475 695.275,477.475L699,477.475Z" style="fill:rgb(145,143,165);"/>
        </g>
        <path d="M684,670.75L684,684.25C684,687.975 680.975,691 677.25,691L483.75,691C480.025,691 477,687.975 477,684.25L477,670.75C477,667.025 480.025,664 483.75,664L677.25,664C680.975,664 684,667.025 684,670.75Z" style="fill:rgb(143,93,228);"/>
        <path d="M684,878L684,898C684,903.519 679.519,908 674,908L487,908C481.481,908 477,903.519 477,898L477,878C477,872.481 481.481,868 487,868L674,868C679.519,868 684,872.481 684,878Z" style="fill:rgb(66,81,241);"/>
        <g transform="matrix(1,0,0,1.38095,0,-50.4762)">
            <path d="M882,127.25L882,137.75C882,140.648 878.751,143 874.75,143L706.25,143C702.249,143 699,140.648 699,137.75L699,127.25C699,124.352 702.249,122 706.25,122L874.75,122C878.751,122 882,124.352 882,127.25Z" style="fill:rgb(216,222,249);"/>
        </g>
        <path d="M882,183.75L882,199.25C882,203.527 878.527,207 874.25,207L706.75,207C702.473,207 699,203.527 699,199.25L699,183.75C699,179.473 702.473,176 706.75,176L874.25,176C878.527,176 882,179.473 882,183.75Z" style="fill:rgb(216,222,249);"/>
        <g transform="matrix(1.10286,0,0,1,-92.4686,-7)">
            <path d="M1090,110.375L1090,125.125C1090,129.195 1087,132.5 1083.31,132.5L905.687,132.5C901.996,132.5 899,129.195 899,125.125L899,110.375C899,106.305 901.996,103 905.687,103L1083.31,103C1087,103 1090,106.305 1090,110.375Z" style="fill:rgb(197,200,233);"/>
        </g>
        <g transform="matrix(1.10286,0,0,1.44883,-92.4686,-70.0169)">
            <path d="M1090,143.25L1090,151.75C1090,154.096 1087.5,156 1084.42,156L904.583,156C901.502,156 899,154.096 899,151.75L899,143.25C899,140.904 901.502,139 904.583,139L1084.42,139C1087.5,139 1090,140.904 1090,143.25Z" style="fill:rgb(197,200,233);"/>
        </g>
        <g transform="matrix(1.10286,0,0,1.08,-92.4686,-14.96)">
            <path d="M1090,168.25L1090,180.75C1090,184.199 1087.26,187 1083.88,187L905.12,187C901.742,187 899,184.199 899,180.75L899,168.25C899,164.801 901.742,162 905.12,162L1083.88,162C1087.26,162 1090,164.801 1090,168.25Z" style="fill:rgb(197,200,233);"/>
        </g>
        <g transform="matrix(1.10286,0,0,1,-92.4686,0)">
            <path d="M1090,198.625L1090,212.875C1090,216.807 1087.11,220 1083.54,220L905.46,220C901.895,220 899,216.807 899,212.875L899,198.625C899,194.693 901.895,191.5 905.46,191.5L1083.54,191.5C1087.11,191.5 1090,194.693 1090,198.625Z" style="fill:rgb(197,200,233);"/>
        </g>
        <g transform="matrix(1,0,0,1.52632,0,-143.421)">
            <path d="M882,267.75L882,277.25C882,279.872 878.751,282 874.75,282L706.25,282C702.249,282 699,279.872 699,277.25L699,267.75C699,265.128 702.249,263 706.25,263L874.75,263C878.751,263 882,265.128 882,267.75Z" style="fill:rgb(254,224,213);"/>
        </g>
        <path d="M882,333L882,343C882,345.76 879.76,348 877,348L704,348C701.24,348 699,345.76 699,343L699,333C699,330.24 701.24,328 704,328L877,328C879.76,328 882,330.24 882,333Z" style="fill:rgb(254,224,213);"/>
        <path d="M882,398L882,408C882,410.76 879.76,413 877,413L704,413C701.24,413 699,410.76 699,408L699,398C699,395.24 701.24,393 704,393L877,393C879.76,393 882,395.24 882,398Z" style="fill:rgb(254,224,213);"/>
        <g transform="matrix(1,0,0,1,0,74)">
            <path d="M882,398L882,408C882,410.76 879.76,413 877,413L704,413C701.24,413 699,410.76 699,408L699,398C699,395.24 701.24,393 704,393L877,393C879.76,393 882,395.24 882,398Z" style="fill:rgb(205,237,224);"/>
        </g>
        <g transform="matrix(1,0,0,1,0,216.289)">
            <path d="M882,398L882,408C882,410.76 879.76,413 877,413L704,413C701.24,413 699,410.76 699,408L699,398C699,395.24 701.24,393 704,393L877,393C879.76,393 882,395.24 882,398Z" style="fill:rgb(241,232,249);"/>
        </g>
        <g transform="matrix(1,0,0,1,0,274.449)">
            <path d="M882,398L882,408C882,410.76 879.76,413 877,413L704,413C701.24,413 699,410.76 699,408L699,398C699,395.24 701.24,393 704,393L877,393C879.76,393 882,395.24 882,398Z" style="fill:rgb(241,232,249);"/>
        </g>
        <g transform="matrix(1,0,0,1.7,0,54.8602)">
            <path d="M882,398L882,408C882,410.76 878.191,413 873.5,413L707.5,413C702.809,413 699,410.76 699,408L699,398C699,395.24 702.809,393 707.5,393L873.5,393C878.191,393 882,395.24 882,398Z" style="fill:rgb(241,232,249);"/>
        </g>
        <g transform="matrix(1,0,0,1,0,423.583)">
            <path d="M882,398L882,408C882,410.76 879.76,413 877,413L704,413C701.24,413 699,410.76 699,408L699,398C699,395.24 701.24,393 704,393L877,393C879.76,393 882,395.24 882,398Z" style="fill:rgb(216,222,248);"/>
        </g>
        <g transform="matrix(1,0,0,1,0,483.416)">
            <path d="M882,398L882,408C882,410.76 879.76,413 877,413L704,413C701.24,413 699,410.76 699,408L699,398C699,395.24 701.24,393 704,393L877,393C879.76,393 882,395.24 882,398Z" style="fill:rgb(216,222,248);"/>
        </g>
        <g transform="matrix(1,0,0,1,0,542.355)">
            <path d="M882,398L882,408C882,410.76 879.76,413 877,413L704,413C701.24,413 699,410.76 699,408L699,398C699,395.24 701.24,393 704,393L877,393C879.76,393 882,395.24 882,398Z" style="fill:rgb(216,222,248);"/>
        </g>
        <g transform="matrix(1,0,0,1.35,0,-4.65907)">
            <path d="M882,398L882,408C882,410.76 878.975,413 875.25,413L705.75,413C702.025,413 699,410.76 699,408L699,398C699,395.24 702.025,393 705.75,393L875.25,393C878.975,393 882,395.24 882,398Z" style="fill:rgb(205,237,224);"/>
        </g>
        <g transform="matrix(1.06927,0,0,1,-62.2716,0)">
            <path d="M1096,249.625L1096,264.875C1096,269.083 1092.81,272.5 1088.87,272.5L906.131,272.5C902.195,272.5 899,269.083 899,264.875L899,249.625C899,245.417 902.195,242 906.131,242L1088.87,242C1092.81,242 1096,245.417 1096,249.625Z" style="fill:rgb(230,199,177);"/>
        </g>
        <g transform="matrix(1.10286,0,0,1,-92.4686,0)">
            <path d="M1090,284.25L1090,296.75C1090,300.199 1087.46,303 1084.33,303L904.667,303C901.539,303 899,300.199 899,296.75L899,284.25C899,280.801 901.539,278 904.667,278L1084.33,278C1087.46,278 1090,280.801 1090,284.25Z" style="fill:rgb(230,199,177);"/>
        </g>
        <g transform="matrix(1.10286,0,0,1,-92.4686,0)">
            <path d="M1090,315.5L1090,328.5C1090,332.087 1087.36,335 1084.11,335L904.894,335C901.641,335 899,332.087 899,328.5L899,315.5C899,311.913 901.641,309 904.894,309L1084.11,309C1087.36,309 1090,311.913 1090,315.5Z" style="fill:rgb(230,199,177);"/>
        </g>
        <g transform="matrix(1.10286,0,0,1,-92.4686,32.5546)">
            <path d="M1090,315.5L1090,328.5C1090,332.087 1087.36,335 1084.11,335L904.894,335C901.641,335 899,332.087 899,328.5L899,315.5C899,311.913 901.641,309 904.894,309L1084.11,309C1087.36,309 1090,311.913 1090,315.5Z" style="fill:rgb(230,199,177);"/>
        </g>
        <g transform="matrix(1.10286,0,0,1,-92.4686,64.0119)">
            <path d="M1090,315.5L1090,328.5C1090,332.087 1087.36,335 1084.11,335L904.894,335C901.641,335 899,332.087 899,328.5L899,315.5C899,311.913 901.641,309 904.894,309L1084.11,309C1087.36,309 1090,311.913 1090,315.5Z" style="fill:rgb(230,199,177);"/>
        </g>
        <g transform="matrix(1.10286,0,0,1,-92.4686,96.5665)">
            <path d="M1090,315.5L1090,328.5C1090,332.087 1087.36,335 1084.11,335L904.894,335C901.641,335 899,332.087 899,328.5L899,315.5C899,311.913 901.641,309 904.894,309L1084.11,309C1087.36,309 1090,311.913 1090,315.5Z" style="fill:rgb(230,199,177);"/>
        </g>
        <g transform="matrix(1.10286,0,0,1,-92.4686,235)">
            <path d="M1090,315.5L1090,328.5C1090,332.087 1087.36,335 1084.11,335L904.894,335C901.641,335 899,332.087 899,328.5L899,315.5C899,311.913 901.641,309 904.894,309L1084.11,309C1087.36,309 1090,311.913 1090,315.5Z" style="fill:rgb(200,238,223);"/>
        </g>
        <g transform="matrix(1.10286,0,0,1,-92.4686,168)">
            <path d="M1090,315.5L1090,328.5C1090,332.087 1087.36,335 1084.11,335L904.894,335C901.641,335 899,332.087 899,328.5L899,315.5C899,311.913 901.641,309 904.894,309L1084.11,309C1087.36,309 1090,311.913 1090,315.5Z" style="fill:rgb(200,238,223);"/>
        </g>
        <g transform="matrix(1.10286,0,0,0.923077,-92.4686,161.269)">
            <path d="M1090,315.5L1090,328.5C1090,332.087 1087.56,335 1084.56,335L904.44,335C901.438,335 899,332.087 899,328.5L899,315.5C899,311.913 901.438,309 904.44,309L1084.56,309C1087.56,309 1090,311.913 1090,315.5Z" style="fill:rgb(200,238,223);"/>
        </g>
        <g transform="matrix(1.10286,0,0,0.769231,-92.4686,383.308)">
            <path d="M1090,315.5L1090,328.5C1090,332.087 1087.97,335 1085.47,335L903.534,335C901.031,335 899,332.087 899,328.5L899,315.5C899,311.913 901.031,309 903.534,309L1085.47,309C1087.97,309 1090,311.913 1090,315.5Z" style="fill:rgb(236,221,250);"/>
        </g>
        <g transform="matrix(1.10286,0,0,1.07692,-92.4686,559.231)">
            <path d="M1090,315.5L1090,328.5C1090,332.087 1087.16,335 1083.65,335L905.347,335C901.844,335 899,332.087 899,328.5L899,315.5C899,311.913 901.844,309 905.347,309L1083.65,309C1087.16,309 1090,311.913 1090,315.5Z" style="fill:rgb(217,220,252);"/>
        </g>
        <g transform="matrix(1.10286,0,0,1,-92.4686,202)">
            <path d="M1090,315.5L1090,328.5C1090,332.087 1087.36,335 1084.11,335L904.894,335C901.641,335 899,332.087 899,328.5L899,315.5C899,311.913 901.641,309 904.894,309L1084.11,309C1087.36,309 1090,311.913 1090,315.5Z" style="fill:rgb(200,238,223);"/>
        </g>
        <g transform="matrix(1.10286,0,0,1.33805,-92.4686,168.543)">
            <path d="M1090,315.5L1090,328.5C1090,332.087 1086.47,335 1082.11,335L906.886,335C902.534,335 899,332.087 899,328.5L899,315.5C899,311.913 902.534,309 906.886,309L1082.11,309C1086.47,309 1090,311.913 1090,315.5Z" style="fill:rgb(236,221,250);"/>
        </g>
        <g transform="matrix(1.10286,0,0,1,-92.4686,338)">
            <path d="M1090,315.5L1090,328.5C1090,332.087 1087.36,335 1084.11,335L904.894,335C901.641,335 899,332.087 899,328.5L899,315.5C899,311.913 901.641,309 904.894,309L1084.11,309C1087.36,309 1090,311.913 1090,315.5Z" style="fill:rgb(236,221,250);"/>
        </g>
        <g transform="matrix(1.10286,0,0,1.26923,-92.4686,283.808)">
            <path d="M1090,315.5L1090,328.5C1090,332.087 1086.65,335 1082.52,335L906.481,335C902.352,335 899,332.087 899,328.5L899,315.5C899,311.913 902.352,309 906.481,309L1082.52,309C1086.65,309 1090,311.913 1090,315.5Z" style="fill:rgb(236,221,250);"/>
        </g>
        <path d="M684,155.5L684,168.5C684,172.087 681.087,175 677.5,175L483.5,175C479.913,175 477,172.087 477,168.5L477,155.5C477,151.913 479.913,149 483.5,149L677.5,149C681.087,149 684,151.913 684,155.5Z" style="fill:rgb(61,86,240);"/>
        <g transform="matrix(1.10286,0,0,1,-92.4686,403)">
            <path d="M1090,315.5L1090,328.5C1090,332.087 1087.36,335 1084.11,335L904.894,335C901.641,335 899,332.087 899,328.5L899,315.5C899,311.913 901.641,309 904.894,309L1084.11,309C1087.36,309 1090,311.913 1090,315.5Z" style="fill:rgb(236,221,250);"/>
        </g>
        <g transform="matrix(1.10286,0,0,1,-92.4686,437)">
            <path d="M1090,315.5L1090,328.5C1090,332.087 1087.36,335 1084.11,335L904.894,335C901.641,335 899,332.087 899,328.5L899,315.5C899,311.913 901.641,309 904.894,309L1084.11,309C1087.36,309 1090,311.913 1090,315.5Z" style="fill:rgb(236,221,250);"/>
        </g>
        <g transform="matrix(1.10286,0,0,1,-92.4686,486)">
            <path d="M1090,315.5L1090,328.5C1090,332.087 1087.36,335 1084.11,335L904.894,335C901.641,335 899,332.087 899,328.5L899,315.5C899,311.913 901.641,309 904.894,309L1084.11,309C1087.36,309 1090,311.913 1090,315.5Z" style="fill:rgb(217,220,252);"/>
        </g>
        <g transform="matrix(1.10286,0,0,1,-92.4686,521)">
            <path d="M1090,315.5L1090,328.5C1090,332.087 1087.36,335 1084.11,335L904.894,335C901.641,335 899,332.087 899,328.5L899,315.5C899,311.913 901.641,309 904.894,309L1084.11,309C1087.36,309 1090,311.913 1090,315.5Z" style="fill:rgb(217,220,252);"/>
        </g>
        <g transform="matrix(1.10286,0,0,1,-92.4686,552)">
            <path d="M1090,315.5L1090,328.5C1090,332.087 1087.36,335 1084.11,335L904.894,335C901.641,335 899,332.087 899,328.5L899,315.5C899,311.913 901.641,309 904.894,309L1084.11,309C1087.36,309 1090,311.913 1090,315.5Z" style="fill:rgb(217,220,252);"/>
        </g>
        <g transform="matrix(1.10286,0,0,1,-92.4686,616)">
            <path d="M1090,315.5L1090,328.5C1090,332.087 1087.36,335 1084.11,335L904.894,335C901.641,335 899,332.087 899,328.5L899,315.5C899,311.913 901.641,309 904.894,309L1084.11,309C1087.36,309 1090,311.913 1090,315.5Z" style="fill:rgb(217,220,252);"/>
        </g>
        <g transform="matrix(1.10286,0,0,1.53846,-92.4686,483.615)">
            <path d="M1090,315.5L1090,328.5C1090,332.087 1085.94,335 1080.93,335L908.067,335C903.063,335 899,332.087 899,328.5L899,315.5C899,311.913 903.063,309 908.067,309L1080.93,309C1085.94,309 1090,311.913 1090,315.5Z" style="fill:rgb(217,220,252);"/>
        </g>
        <g transform="matrix(1,0,0,1,5,12.8364)">
            <g transform="matrix(20,0,0,20,389.924,519.326)">
            </g>
            <text x="258px" y="519.326px" style="font-family:'ArialMT', 'Arial', sans-serif;font-size:20px;fill:white;">Dibujo <tspan x="319.895px 332.111px " y="519.326px 519.326px ">Té</tspan>cnico</text>
        </g>
        <g transform="matrix(1,0,0,1,229.917,-347.298)">
            <g transform="matrix(12,0,0,12,436.746,513.596)">
            </g>
            <text x="258px" y="513.596px" style="font-family:'ArialMT', 'Arial', sans-serif;font-size:12px;fill:white;">Dibujo artístico Vs. Dibujo técnico</text>
        </g>
        <g transform="matrix(1,0,0,1,229.917,-176.995)">
            <text x="258px" y="513.596px" style="font-family:'ArialMT', 'Arial', sans-serif;font-size:12px;fill:white;">Instrumentos y manejo en el dibujo</text>
            <g transform="matrix(12,0,0,12,296.021,525.988)">
            </g>
            <text x="258px" y="525.988px" style="font-family:'ArialMT', 'Arial', sans-serif;font-size:12px;fill:white;">técnico</text>
        </g>
        <g transform="matrix(1,0,0,1,229.917,-0.798354)">
            <g transform="matrix(12,0,0,12,414.768,513.596)">
            </g>
            <text x="258px" y="513.596px" style="font-family:'ArialMT', 'Arial', sans-serif;font-size:12px;fill:white;">Nociones de geometría plana</text>
        </g>
        <g transform="matrix(1,0,0,1,229.917,168.202)">
            <g transform="matrix(12,0,0,12,420.961,513.596)">
            </g>
            <text x="258px" y="513.596px" style="font-family:'ArialMT', 'Arial', sans-serif;font-size:12px;fill:white;">T<tspan x="264.885px 267.551px " y="513.596px 513.596px ">ip</tspan>os de vistas y proyecciones</text>
        </g>
        <g transform="matrix(1,0,0,1,229.917,372.505)">
            <text x="258px" y="513.596px" style="font-family:'ArialMT', 'Arial', sans-serif;font-size:12px;fill:white;">Interpretación de formas, acotado</text>
            <g transform="matrix(12,0,0,12,358.729,525.988)">
            </g>
            <text x="258px" y="525.988px" style="font-family:'ArialMT', 'Arial', sans-serif;font-size:12px;fill:white;">y lectura de planos</text>
        </g>
        <g transform="matrix(1,0,0,1,451,-383)">
            <text x="258px" y="512.163px" style="font-family:'ArialMT', 'Arial', sans-serif;font-size:10px;">Importancia del dibujo técnico en la</text>
            <g transform="matrix(10,0,0,10,295.798,522.49)">
            </g>
            <text x="258px" y="522.49px" style="font-family:'ArialMT', 'Arial', sans-serif;font-size:10px;">industria</text>
        </g>
        <g transform="matrix(1,0,0,1,445,-322.246)">
            <text x="258px" y="512.163px" style="font-family:'ArialMT', 'Arial', sans-serif;font-size:10px;">Aplicación del dibujo técnico en</text>
            <g transform="matrix(10,0,0,10,351.936,522.49)">
            </g>
            <text x="258px" y="522.49px" style="font-family:'ArialMT', 'Arial', sans-serif;font-size:10px;">procesos industriales</text>
        </g>
        <g transform="matrix(1,0,0,1,649,-405)">
            <text x="258px" y="512.163px" style="font-family:'ArialMT', 'Arial', sans-serif;font-size:10px;">Es fundamental para la comunicación</text>
            <g transform="matrix(10,0,0,10,378.625,522.49)">
            </g>
            <text x="258px" y="522.49px" style="font-family:'ArialMT', 'Arial', sans-serif;font-size:10px;">precisa de ideas y diseños.</text>
        </g>
        <g transform="matrix(1,0,0,1,649,-370.845)">
            <text x="258px" y="512.163px" style="font-family:'ArialMT', 'Arial', sans-serif;font-size:10px;">Facilita la producción y fabricación</text>
            <g transform="matrix(10,0,0,10,300.798,522.49)">
            </g>
            <text x="258px" y="522.49px" style="font-family:'ArialMT', 'Arial', sans-serif;font-size:10px;">industrial.</text>
        </g>
        <g transform="matrix(1,0,0,1,649,-339)">
            <g transform="matrix(10,0,0,10,345.275,512.163)">
            </g>
            <g transform="matrix(10,0,0,10,348.054,512.163)">
            </g>
            <text x="258px" y="512.163px" style="font-family:'ArialMT', 'Arial', sans-serif;font-size:10px;">Se utiliza para planiﬁcar y controlar</text>
            <g transform="matrix(10,0,0,10,355.271,522.49)">
            </g>
            <text x="258px" y="522.49px" style="font-family:'ArialMT', 'Arial', sans-serif;font-size:10px;">procesos productivos.</text>
        </g>
        <g transform="matrix(1,0,0,1,649,-309)">
            <text x="258px" y="512.163px" style="font-family:'ArialMT', 'Arial', sans-serif;font-size:10px;">Permite la creación de planos que guían la</text>
            <g transform="matrix(10,0,0,10,378.615,522.49)">
            </g>
            <text x="258px" y="522.49px" style="font-family:'ArialMT', 'Arial', sans-serif;font-size:10px;">construcción y ensamblaje.</text>
        </g>
        <g transform="matrix(1,0,0,1,649,-222)">
            <text x="258px" y="512.163px" style="font-family:'ArialMT', 'Arial', sans-serif;font-size:10px;">Cada instrumento cumple funciones</text>
            <g transform="matrix(10,0,0,10,287.463,522.49)">
            </g>
            <g transform="matrix(10,0,0,10,290.241,522.49)">
            </g>
            <g transform="matrix(10,0,0,10,399.177,522.49)">
            </g>
            <g transform="matrix(10,0,0,10,401.955,522.49)">
            </g>
            <g transform="matrix(10,0,0,10,431.97,522.49)">
            </g>
            <text x="258px" y="522.49px" style="font-family:'ArialMT', 'Arial', sans-serif;font-size:10px;">especíﬁcas para trazar líneas y ﬁguras.</text>
        </g>
        <g transform="matrix(1,0,0,1,649,-256)">
            <text x="258px" y="512.163px" style="font-family:'ArialMT', 'Arial', sans-serif;font-size:10px;">Incluyen regla, compás, transportador<tspan x="425.314px " y="512.163px ">,</tspan></text>
            <g transform="matrix(10,0,0,10,351.389,522.49)">
            </g>
            <text x="258px" y="522.49px" style="font-family:'ArialMT', 'Arial', sans-serif;font-size:10px;">escuadra y cartabón.</text>
        </g>
        <g transform="matrix(1,0,0,1,449,-241.246)">
            <text x="258px" y="512.163px" style="font-family:'ArialMT', 'Arial', sans-serif;font-size:10px;">Instrumentos básicos del dibujo</text>
            <g transform="matrix(10,0,0,10,289.685,522.49)">
            </g>
            <text x="258px" y="522.49px" style="font-family:'ArialMT', 'Arial', sans-serif;font-size:10px;">técnico</text>
        </g>
        <g transform="matrix(1,0,0,1,449,-170.582)">
            <g transform="matrix(10,0,0,10,325.256,512.163)">
            </g>
            <text x="258px" y="512.163px" style="font-family:'ArialMT', 'Arial', sans-serif;font-size:10px;">Letras técnicas</text>
        </g>
        <g transform="matrix(1,0,0,1,449,-105.582)">
            <g transform="matrix(10,0,0,10,364.909,512.163)">
            </g>
            <g transform="matrix(10,0,0,10,367.688,512.163)">
            </g>
            <g transform="matrix(10,0,0,10,391.594,512.163)">
            </g>
            <text x="258px" y="512.163px" style="font-family:'ArialMT', 'Arial', sans-serif;font-size:10px;">T<tspan x="263.737px 265.959px " y="512.163px 512.163px ">ip</tspan>os de línea y su signiﬁcado</text>
        </g>
        <g transform="matrix(1,0,0,1,449,-31.582)">
            <g transform="matrix(10,0,0,10,342.492,512.163)">
            </g>
            <text x="258px" y="512.163px" style="font-family:'ArialMT', 'Arial', sans-serif;font-size:10px;">Conceptos básicos</text>
        </g>
        <g transform="matrix(1,0,0,1,649,-25.5)">
            <g transform="matrix(10,0,0,10,377.512,512.163)">
            </g>
            <g transform="matrix(10,0,0,10,380.29,512.163)">
            </g>
            <text x="258px" y="512.163px" style="font-family:'ArialMT', 'Arial', sans-serif;font-size:10px;">Son la base para construir ﬁguras y</text>
            <g transform="matrix(10,0,0,10,374.729,522.49)">
            </g>
            <text x="258px" y="522.49px" style="font-family:'ArialMT', 'Arial', sans-serif;font-size:10px;">comprender proporciones.</text>
        </g>
        <g transform="matrix(1,0,0,1,649,8.5)">
            <text x="258px" y="512.163px" style="font-family:'ArialMT', 'Arial', sans-serif;font-size:10px;">Se estudian triángulos, cuadrados, círculos</text>
            <g transform="matrix(10,0,0,10,311.926,522.49)">
            </g>
            <text x="258px" y="522.49px" style="font-family:'ArialMT', 'Arial', sans-serif;font-size:10px;">y polígonos.</text>
        </g>
        <g transform="matrix(1,0,0,1,649,42.8369)">
            <text x="258px" y="512.163px" style="font-family:'ArialMT', 'Arial', sans-serif;font-size:10px;">El trazado usa instrumentos para precisión</text>
            <g transform="matrix(10,0,0,10,333.581,522.49)">
            </g>
            <g transform="matrix(10,0,0,10,336.359,522.49)">
            </g>
            <g transform="matrix(10,0,0,10,366.374,522.49)">
            </g>
            <text x="258px" y="522.49px" style="font-family:'ArialMT', 'Arial', sans-serif;font-size:10px;">y simetría en las ﬁguras.</text>
        </g>
        <g transform="matrix(1,0,0,1,649,80.4854)">
            <text x="258px" y="512.163px" style="font-family:'ArialMT', 'Arial', sans-serif;font-size:10px;">Representa las diferentes caras de un</text>
            <g transform="matrix(10,0,0,10,437.561,522.49)">
            </g>
            <text x="258px" y="522.49px" style="font-family:'ArialMT', 'Arial', sans-serif;font-size:10px;">objeto en proyecciones perpendiculares.</text>
        </g>
        <g transform="matrix(1,0,0,1,649,117.254)">
            <g transform="matrix(10,0,0,10,445.861,512.163)">
            </g>
            <text x="258px" y="512.163px" style="font-family:'ArialMT', 'Arial', sans-serif;font-size:10px;">Facilita la medición y análisis dimensional.</text>
        </g>
        <g transform="matrix(1,0,0,1,649,145)">
            <text x="258px" y="512.163px" style="font-family:'ArialMT', 'Arial', sans-serif;font-size:10px;">Muestra el objeto en tres dimensiones para</text>
            <g transform="matrix(10,0,0,10,345.256,522.49)">
            </g>
            <text x="258px" y="522.49px" style="font-family:'ArialMT', 'Arial', sans-serif;font-size:10px;">mejor visualización.</text>
        </g>
        <g transform="matrix(1,0,0,1,649,173.583)">
            <text x="258px" y="512.163px" style="font-family:'ArialMT', 'Arial', sans-serif;font-size:10px;">La isométrica mantiene proporciones</text>
            <text x="258px" y="522.49px" style="font-family:'ArialMT', 'Arial', sans-serif;font-size:10px;">mientras que la perspectiva simula</text>
            <g transform="matrix(10,0,0,10,313.601,532.817)">
            </g>
            <text x="258px" y="532.817px" style="font-family:'ArialMT', 'Arial', sans-serif;font-size:10px;">profundidad.</text>
        </g>
        <g transform="matrix(1,0,0,1,649,213)">
            <text x="258px" y="512.163px" style="font-family:'ArialMT', 'Arial', sans-serif;font-size:10px;">Consiste en entender cómo se relacionan</text>
            <g transform="matrix(10,0,0,10,420.305,522.49)">
            </g>
            <text x="258px" y="522.49px" style="font-family:'ArialMT', 'Arial', sans-serif;font-size:10px;">las diferentes vistas para el montaje.</text>
        </g>
        <g transform="matrix(1,0,0,1,649,247)">
            <g transform="matrix(10,0,0,10,345.275,512.163)">
            </g>
            <g transform="matrix(10,0,0,10,348.054,512.163)">
            </g>
            <text x="258px" y="512.163px" style="font-family:'ArialMT', 'Arial', sans-serif;font-size:10px;">Esencial para identiﬁcar detalles ocultos y</text>
            <g transform="matrix(10,0,0,10,316.921,522.49)">
            </g>
            <text x="258px" y="522.49px" style="font-family:'ArialMT', 'Arial', sans-serif;font-size:10px;">ensamblajes.</text>
        </g>
        <g transform="matrix(1,0,0,1,649,294.254)">
            <text x="258px" y="512.163px" style="font-family:'ArialMT', 'Arial', sans-serif;font-size:10px;">Analiza la forma y función de piezas</text>
            <g transform="matrix(10,0,0,10,376.418,522.49)">
            </g>
            <text x="258px" y="522.49px" style="font-family:'ArialMT', 'Arial', sans-serif;font-size:10px;">representadas en el plano.</text>
        </g>
        <g transform="matrix(1,0,0,1,649,329.5)">
            <text x="258px" y="512.163px" style="font-family:'ArialMT', 'Arial', sans-serif;font-size:10px;">A<tspan x="264.489px 269.489px " y="512.163px 512.163px ">yu</tspan>da a entender el diseño y su aplicación</text>
            <g transform="matrix(10,0,0,10,295.793,522.49)">
            </g>
            <text x="258px" y="522.49px" style="font-family:'ArialMT', 'Arial', sans-serif;font-size:10px;">práctica.</text>
        </g>
        <g transform="matrix(1,0,0,1,649,360.254)">
            <text x="258px" y="512.163px" style="font-family:'ArialMT', 'Arial', sans-serif;font-size:10px;">Señala dimensiones y tolerancias</text>
            <g transform="matrix(10,0,0,10,383.068,522.49)">
            </g>
            <text x="258px" y="522.49px" style="font-family:'ArialMT', 'Arial', sans-serif;font-size:10px;">necesarias para fabricación.</text>
        </g>
        <g transform="matrix(1,0,0,1,649,391.5)">
            <text x="258px" y="512.163px" style="font-family:'ArialMT', 'Arial', sans-serif;font-size:10px;">Incluye cotas lineales, angulares y de</text>
            <g transform="matrix(10,0,0,10,288.015,522.49)">
            </g>
            <text x="258px" y="522.49px" style="font-family:'ArialMT', 'Arial', sans-serif;font-size:10px;">radios.</text>
        </g>
        <g transform="matrix(1,0,0,1,649,425.5)">
            <text x="258px" y="512.163px" style="font-family:'ArialMT', 'Arial', sans-serif;font-size:10px;">Consiste en comprender símbolos, escalas</text>
            <g transform="matrix(10,0,0,10,361.95,522.49)">
            </g>
            <text x="258px" y="522.49px" style="font-family:'ArialMT', 'Arial', sans-serif;font-size:10px;">y anotaciones técnicas.</text>
        </g>
        <g transform="matrix(1,0,0,1,649,459.5)">
            <text x="258px" y="512.163px" style="font-family:'ArialMT', 'Arial', sans-serif;font-size:10px;">Permite ejecutar correctamente la</text>
            <text x="258px" y="522.49px" style="font-family:'ArialMT', 'Arial', sans-serif;font-size:10px;">construcción o manufactura según el</text>
            <g transform="matrix(10,0,0,10,285.246,532.817)">
            </g>
            <text x="258px" y="532.817px" style="font-family:'ArialMT', 'Arial', sans-serif;font-size:10px;">plano.</text>
        </g>
        <g transform="matrix(1,0,0,1,445,436.773)">
            <g transform="matrix(10,0,0,10,337.502,512.163)">
            </g>
            <text x="258px" y="512.163px" style="font-family:'ArialMT', 'Arial', sans-serif;font-size:10px;">Lectura de planos</text>
        </g>
        <g transform="matrix(1,0,0,1,445,377.746)">
            <g transform="matrix(10,0,0,10,294.694,512.163)">
            </g>
            <text x="258px" y="512.163px" style="font-family:'ArialMT', 'Arial', sans-serif;font-size:10px;">Acotado</text>
        </g>
        <g transform="matrix(1,0,0,1,445,318.001)">
            <g transform="matrix(10,0,0,10,366.389,512.163)">
            </g>
            <text x="258px" y="512.163px" style="font-family:'ArialMT', 'Arial', sans-serif;font-size:10px;">Interpretación de formas</text>
        </g>
        <g transform="matrix(1,0,0,1,445,226.215)">
            <text x="258px" y="512.163px" style="font-family:'ArialMT', 'Arial', sans-serif;font-size:10px;">Interpretación de vistas en planos</text>
            <g transform="matrix(10,0,0,10,308.581,522.49)">
            </g>
            <text x="258px" y="522.49px" style="font-family:'ArialMT', 'Arial', sans-serif;font-size:10px;">industriales</text>
        </g>
        <g transform="matrix(1,0,0,1,445,168.867)">
            <g transform="matrix(10,0,0,10,395.09,512.163)">
            </g>
            <text x="258px" y="512.163px" style="font-family:'ArialMT', 'Arial', sans-serif;font-size:10px;">V<tspan x="264.489px 266.711px " y="512.163px 512.163px ">is</tspan>ta isométrica y perspectivas</text>
        </g>
        <g transform="matrix(1,0,0,1,445,110.707)">
            <g transform="matrix(10,0,0,10,324.528,512.163)">
            </g>
            <text x="258px" y="512.163px" style="font-family:'ArialMT', 'Arial', sans-serif;font-size:10px;">V<tspan x="264.489px 266.711px " y="512.163px 512.163px ">is</tspan>ta ortogonal</text>
        </g>
        <g transform="matrix(1,0,0,1,449,25.6453)">
            <text x="258px" y="512.163px" style="font-family:'ArialMT', 'Arial', sans-serif;font-size:10px;">Figuras geométricas y trazado de</text>
            <g transform="matrix(10,0,0,10,258,522.49)">
            </g>
            <g transform="matrix(10,0,0,10,260.778,522.49)">
            </g>
            <g transform="matrix(10,0,0,10,335.812,522.49)">
            </g>
            <text x="258px" y="522.49px" style="font-family:'ArialMT', 'Arial', sans-serif;font-size:10px;">ﬁguras complejas</text>
        </g>
        <g transform="matrix(1,0,0,1,649,-55.2456)">
            <g transform="matrix(10,0,0,10,438.117,512.163)">
            </g>
            <text x="258px" y="512.163px" style="font-family:'ArialMT', 'Arial', sans-serif;font-size:10px;">Incluye puntos, líneas, ángulos y planos.</text>
        </g>
        <g transform="matrix(1,0,0,1,649,-191)">
            <text x="258px" y="512.163px" style="font-family:'ArialMT', 'Arial', sans-serif;font-size:10px;">Se utilizan para rotular y anotar en los</text>
            <g transform="matrix(10,0,0,10,346.945,522.49)">
            </g>
            <text x="258px" y="522.49px" style="font-family:'ArialMT', 'Arial', sans-serif;font-size:10px;">planos con claridad.</text>
        </g>
        <g transform="matrix(1,0,0,1,649,-157.945)">
            <text x="258px" y="512.163px" style="font-family:'ArialMT', 'Arial', sans-serif;font-size:10px;">Deben ser uniformes y legibles para evitar</text>
            <g transform="matrix(10,0,0,10,314.147,522.49)">
            </g>
            <text x="258px" y="522.49px" style="font-family:'ArialMT', 'Arial', sans-serif;font-size:10px;">confusiones.</text>
        </g>
        <g transform="matrix(1,0,0,1,649,-128)">
            <text x="258px" y="512.163px" style="font-family:'ArialMT', 'Arial', sans-serif;font-size:10px;">Líneas continuas, discontinuas y de trazos</text>
            <g transform="matrix(10,0,0,10,388.078,522.49)">
            </g>
            <text x="258px" y="522.49px" style="font-family:'ArialMT', 'Arial', sans-serif;font-size:10px;">indican diferentes elementos.</text>
        </g>
        <g transform="matrix(1,0,0,1,649,-93.9335)">
            <text x="258px" y="512.163px" style="font-family:'ArialMT', 'Arial', sans-serif;font-size:10px;">Cada tipo de línea representa bordes</text>
            <g transform="matrix(10,0,0,10,360.271,522.49)">
            </g>
            <text x="258px" y="522.49px" style="font-family:'ArialMT', 'Arial', sans-serif;font-size:10px;">visibles, ocultos o ejes.</text>
        </g>
    </g>
</svg>
